<svg xmlns:xlink="http://www.w3.org/1999/xlink" xmlns="http://www.w3.org/2000/svg" viewBox="0 0 418.45508 304.1" data-testid="icon" ><path d="M 257.23193,241.06679 C 262.60005,241.12546 266.93744,245.46285 266.99611,250.83097 V 294.22733 C 267.24213,299.56627 263.01022,304.04424 257.66589,304.1 H 69.651163 L 139.19383,241.39226 Z M 139.19383,86.141783 V 146.46272 H 228.37335 L 139.19383,184.43454 V 241.06679 L 88.094616,206.13272 7.91984,240.84981 55.872818,184.43454 0,146.46272 H 87.552162 Z M 257.12344,1.492846e-6 C 262.57596,1.492846e-6 266.99611,4.4201475 266.99611,9.8726745 V 53.269039 C 267.45004,58.803122 262.99962,63.506408 257.44891,63.358693 H 139.19383 V 86.141783 H 72.037962 V 10.198146 C 71.853932,4.6189775 76.32843,-0.00303251 81.910635,1.492846e-6 Z" fill-rule="evenodd" fill="#1D0F44"></path><path d="M 408.68523,1.492846e-6 C 414.12049,-3.3350716e-4 418.50981,4.4377475 418.44941,9.8726745 V 293.90186 C 418.63246,299.25886 414.37053,303.71676 409.0107,303.77453 H 360.73225 C 355.38794,303.71876 351.156,299.2408 351.40203,293.90186 V 62.707747 H 308.8736 C 303.32291,62.855463 298.87247,58.152176 299.3264,52.618093 V 9.8726745 C 299.3264,4.4201475 303.74654,1.492846e-6 309.19907,1.492846e-6 Z" fill-rule="evenodd" fill="#E40138"></path></svg>