<svg xmlns:xlink="http://www.w3.org/1999/xlink" xmlns="http://www.w3.org/2000/svg" viewBox="0 0 511.69946 306.7291" data-testid="icon" ><path d="M 257.21386,243.95918 C 262.61608,244.01921 266.96378,248.41577 266.96345,253.81833 V 296.86995 C 267.21194,302.20033 262.98789,306.67286 257.65204,306.7291 H 69.561667 L 139.23288,243.95918 Z M 139.23288,89.170533 V 149.42089 H 228.40328 L 139.23288,187.43339 V 243.95918 L 87.636745,209.23306 7.88731,243.95918 55.86843,187.43339 0,149.42089 H 87.636745 Z M 257.10431,2.957745 C 262.59243,2.957407 267.02443,7.438653 266.96345,12.926441 V 55.649424 C 267.42223,61.176824 262.97734,65.877174 257.43295,65.727666 H 139.23288 V 89.170533 H 71.971676 V 12.488256 C 72.030919,7.067927 76.41049,2.688349 81.830812,2.629107 Z" fill-rule="evenodd" fill="#1D0F44"></path><path d="M 405.31997,0 C 444.97558,0 476.1962,17.198739 490.98489,47.104827 508.62179,82.816859 501.93948,129.4835 469.0757,171.22057 L 414.30273,243.95918 H 501.93948 C 507.31696,244.07709 511.63124,248.43985 511.68905,253.81833 V 296.86995 C 511.93926,302.24322 507.64719,306.73491 502.26812,306.7291 H 316.04003 C 310.70418,306.67286 306.48013,302.20033 306.72861,296.86995 V 288.10626 C 306.59047,283.43215 308.32579,278.89665 311.54864,275.50846 L 419.99912,133.09853 C 431.43757,120.80068 437.43966,104.41342 436.65011,87.636887 435.62429,70.706632 420.64684,58.075626 403.78633,59.921722 377.2762,59.921722 370.92255,79.311383 369.71754,95.524207 L 369.06027,109.54611 C 368.94237,114.92362 364.57961,119.23791 359.20112,119.29571 H 317.68322 C 311.7318,120.37517 306.34687,115.58258 306.72861,109.54611 V 95.195569 C 308.80999,34.178386 343.6456,0 405.31997,0 Z" fill-rule="evenodd" fill="#E40138"></path></svg>