<?xml version="1.0" encoding="utf-8"?>
<!-- Generator: Adobe Illustrator 24.3.0, SVG Export Plug-In . SVG Version: 6.00 Build 0)  -->
<svg version="1.1" id="Слой_1" xmlns="http://www.w3.org/2000/svg" xmlns:xlink="http://www.w3.org/1999/xlink" x="0px" y="0px"
	 viewBox="0 0 512 300.3" style="enable-background:new 0 0 512 300.3;" xml:space="preserve">
<style type="text/css">
	.st0{fill:#1D0F44;}
	.st1{fill:#E40138;}
</style>
<g>
	<g>
		<path class="st0" d="M137.6,85.2H71.2V9.7C71.2,4.4,75.6,0,81,0h173.2c5.4,0,9.8,4.4,9.8,9.8l0,42.3c0,5.8-3.6,10-9.4,10H137.6
			V85.2z"/>
		<path class="st0" d="M254.6,300.3H68.8l68.8-62h116.7c5.6,0,9.6,4.8,9.6,9.7v42.6c0,5.4-3.9,9.7-9.3,9.7"/>
		<polygon class="st0" points="137.6,182.3 225.8,144.8 137.6,144.8 137.6,85.2 86.5,144.8 0,144.8 55.3,182.3 7.8,238.2 
			87.1,203.9 137.6,238.2 		"/>
	</g>
	<path class="st1" d="M405.2,100l55.7-88.5c3-5.1,0.1-11.6-7.2-11.6h-50.8c-3.8,0-6.7,1.8-9,5.3l-82.5,133.2
		c-11.2,18.2-16.3,37.7-16.3,57.5c0,60,45.7,104.2,108.7,104.2c63.7,0,108.3-43,108.3-104.5v-0.1v0.2v-0.1
		C512,134.2,463.1,95,405.2,100 M451.8,195.9c0,29.7-24.2,43.8-48,43.8c-23.9,0-48-15.2-48-44.4c0-29.2,24.2-43.5,48-43.5
		C427.6,151.8,451.8,166.2,451.8,195.9"/>
</g>
</svg>
