<?xml version="1.0" encoding="utf-8"?>
<!-- Generator: Adobe Illustrator 24.3.0, SVG Export Plug-In . SVG Version: 6.00 Build 0)  -->
<svg version="1.1" id="Слой_1" xmlns="http://www.w3.org/2000/svg" xmlns:xlink="http://www.w3.org/1999/xlink" x="0px" y="0px"
	 viewBox="0 0 512 298.8" style="enable-background:new 0 0 512 298.8;" xml:space="preserve">
<style type="text/css">
	.st0{fill:#1D0F44;}
	.st1{fill:#E40138;}
</style>
<g>
	<g>
		<path class="st0" d="M136.9,84.7H70.8v-75c0-5.3,4.4-9.7,9.7-9.7h172.4c5.3,0,9.7,4.4,9.7,9.7l0,42.1c0,5.8-3.6,9.9-9.4,9.9H136.9
			V84.7z"/>
		<path class="st0" d="M253.3,298.8H68.5l68.5-61.7h116.1c5.6,0,9.6,4.7,9.6,9.6v42.4c0,5.4-3.9,9.7-9.2,9.7"/>
		<polygon class="st0" points="136.9,181.4 224.7,144.1 136.9,144.1 136.9,84.7 86.1,144.1 0,144.1 55,181.4 7.8,237.1 86.6,202.9 
			136.9,237.1 		"/>
	</g>
	<path class="st1" d="M451.5,196.7c0-19.9-7.3-44.6-57.4-46.4c-33.4-1.2-55,4.8-69.7,8.2c-2.5,0.6-5.2,0-7.3-1.6
		c-2-1.6-3.3-4.1-3.3-6.7V8.6c0-4.7,3.8-8.6,8.6-8.6h165.2c4.7,0,8.6,3.8,8.6,8.6v43c0,4.7-3.8,8.6-8.6,8.6H373.8v38.9
		c4.8-1.5,16.8-3.8,26-4.1C468.1,91.8,512,130.4,512,195.9c0,60.3-43.3,102.9-105.6,102.9c-57.7,0-98.7-36.8-102.1-91.6
		c-0.1-2.4,0.7-4.7,2.3-6.4c1.6-1.7,3.9-2.7,6.2-2.7h43.6c4.4,0,8,3.4,8.6,7.8c3.1,25.4,25.8,32.9,40.5,32.9
		C434,238.8,451.5,220.6,451.5,196.7"/>
</g>
</svg>
